<?xml version="1.0" encoding="UTF-8" standalone="no"?>
<!-- Created with Inkscape (http://www.inkscape.org/) -->

<svg
   xmlns:dc="http://purl.org/dc/elements/1.1/"
   xmlns:cc="http://creativecommons.org/ns#"
   xmlns:rdf="http://www.w3.org/1999/02/22-rdf-syntax-ns#"
   xmlns:svg="http://www.w3.org/2000/svg"
   xmlns="http://www.w3.org/2000/svg"
   xmlns:xlink="http://www.w3.org/1999/xlink"
   xmlns:sodipodi="http://sodipodi.sourceforge.net/DTD/sodipodi-0.dtd"
   xmlns:inkscape="http://www.inkscape.org/namespaces/inkscape"
   width="501"
   height="282"
   id="svg2"
   version="1.1"
   inkscape:version="0.92.1 r15371"
   sodipodi:docname="splash.svg"
   inkscape:export-filename="splash_2x.png"
   inkscape:export-xdpi="192"
   inkscape:export-ydpi="192">
  <defs
     id="defs4">
    <pattern
       inkscape:collect="always"
       xlink:href="#Checkerboard"
       id="pattern10697"
       patternTransform="matrix(10,0,0,10,1.5706304,-80.610173)" />
    <pattern
       inkscape:stockid="Checkerboard"
       id="Checkerboard"
       patternTransform="translate(0,0) scale(10,10)"
       height="2"
       width="2"
       patternUnits="userSpaceOnUse"
       inkscape:collect="always">
      <rect
         id="rect10050"
         height="1"
         width="1"
         y="0"
         x="0"
         style="fill:black;stroke:none" />
      <rect
         id="rect10052"
         height="1"
         width="1"
         y="1"
         x="1"
         style="fill:black;stroke:none" />
    </pattern>
    <radialGradient
       gradientUnits="userSpaceOnUse"
       gradientTransform="matrix(1.64722,0,0,1.26792,-15.4741,-5.79794)"
       r="20.278975"
       fy="19.668886"
       fx="26.109201"
       cy="19.668886"
       cx="26.109201"
       id="radialGradient39177"
       xlink:href="#linearGradient39171"
       inkscape:collect="always" />
    <linearGradient
       gradientUnits="userSpaceOnUse"
       y2="34.375"
       x2="29.875"
       y1="18.875"
       x1="31.1875"
       id="linearGradient39161"
       xlink:href="#linearGradient39155"
       inkscape:collect="always" />
    <linearGradient
       gradientUnits="userSpaceOnUse"
       y2="-26.908371"
       x2="20.155914"
       y1="21.699249"
       x1="21.204315"
       id="linearGradient35506"
       xlink:href="#linearGradient35500"
       inkscape:collect="always" />
    <radialGradient
       gradientUnits="userSpaceOnUse"
       gradientTransform="matrix(1,0,0,0.342857,0,25.6183)"
       r="15.467961"
       fy="38.98439"
       fx="28.019106"
       cy="38.98439"
       cx="28.019106"
       id="radialGradient35494"
       xlink:href="#linearGradient35488"
       inkscape:collect="always" />
    <linearGradient
       gradientTransform="matrix(0.0681885,0,0,0.0681885,22.5111,27.0289)"
       y2="-458.05771"
       x2="190.46461"
       y1="193.33229"
       x1="185.9903"
       gradientUnits="userSpaceOnUse"
       id="linearGradient34576"
       xlink:href="#linearGradient3564"
       inkscape:collect="always" />
    <linearGradient
       id="linearGradient3564"
       inkscape:collect="always">
      <stop
         id="stop3566"
         offset="0"
         style="stop-color: white; stop-opacity: 1;" />
      <stop
         id="stop3568"
         offset="1"
         style="stop-color: white; stop-opacity: 0;" />
    </linearGradient>
    <linearGradient
       id="linearGradient35488"
       inkscape:collect="always">
      <stop
         id="stop35490"
         offset="0"
         style="stop-color: black; stop-opacity: 1;" />
      <stop
         id="stop35492"
         offset="1"
         style="stop-color: black; stop-opacity: 0;" />
    </linearGradient>
    <linearGradient
       id="linearGradient35500"
       inkscape:collect="always">
      <stop
         id="stop35502"
         offset="0"
         style="stop-color: white; stop-opacity: 1;" />
      <stop
         id="stop35504"
         offset="1"
         style="stop-color: white; stop-opacity: 0;" />
    </linearGradient>
    <linearGradient
       id="linearGradient39155">
      <stop
         id="stop39157"
         offset="0"
         style="stop-color: white; stop-opacity: 1;" />
      <stop
         id="stop39159"
         offset="1"
         style="stop-color: rgb(218, 218, 218); stop-opacity: 1;" />
    </linearGradient>
    <linearGradient
       id="linearGradient39171"
       inkscape:collect="always">
      <stop
         id="stop39173"
         offset="0"
         style="stop-color: white; stop-opacity: 1;" />
      <stop
         id="stop39175"
         offset="1"
         style="stop-color: white; stop-opacity: 0;" />
    </linearGradient>
    <radialGradient
       gradientUnits="userSpaceOnUse"
       gradientTransform="matrix(1.64722,0,0,1.26792,6.7759,-8.54794)"
       r="20.278975"
       fy="19.668886"
       fx="26.109201"
       cy="19.668886"
       cx="26.109201"
       id="radialGradient39177-6"
       xlink:href="#linearGradient39171-8"
       inkscape:collect="always" />
    <linearGradient
       gradientUnits="userSpaceOnUse"
       y2="34.375"
       x2="29.875"
       y1="18.875"
       x1="31.1875"
       id="linearGradient39161-4"
       xlink:href="#linearGradient39155-6"
       inkscape:collect="always" />
    <linearGradient
       gradientUnits="userSpaceOnUse"
       y2="-26.908371"
       x2="20.155914"
       y1="21.699249"
       x1="21.204315"
       id="linearGradient35506-4"
       xlink:href="#linearGradient35500-1"
       inkscape:collect="always" />
    <radialGradient
       gradientUnits="userSpaceOnUse"
       gradientTransform="matrix(1,0,0,0.342857,0,25.6183)"
       r="15.467961"
       fy="38.98439"
       fx="28.019106"
       cy="38.98439"
       cx="28.019106"
       id="radialGradient35494-5"
       xlink:href="#linearGradient35488-7"
       inkscape:collect="always" />
    <linearGradient
       gradientTransform="matrix(6.81885e-2,0,0,6.81885e-2,-34.9889,21.5289)"
       y2="-458.05771"
       x2="190.46461"
       y1="193.33229"
       x1="185.9903"
       gradientUnits="userSpaceOnUse"
       id="linearGradient34576-1"
       xlink:href="#linearGradient3564-2"
       inkscape:collect="always" />
    <linearGradient
       id="linearGradient3564-2"
       inkscape:collect="always">
      <stop
         id="stop3566-1"
         offset="0"
         style="stop-color: white; stop-opacity: 1;" />
      <stop
         id="stop3568-5"
         offset="1"
         style="stop-color: white; stop-opacity: 0;" />
    </linearGradient>
    <linearGradient
       id="linearGradient35488-7"
       inkscape:collect="always">
      <stop
         id="stop35490-1"
         offset="0"
         style="stop-color: black; stop-opacity: 1;" />
      <stop
         id="stop35492-0"
         offset="1"
         style="stop-color: black; stop-opacity: 0;" />
    </linearGradient>
    <linearGradient
       id="linearGradient35500-1"
       inkscape:collect="always">
      <stop
         id="stop35502-6"
         offset="0"
         style="stop-color: white; stop-opacity: 1;" />
      <stop
         id="stop35504-6"
         offset="1"
         style="stop-color: white; stop-opacity: 0;" />
    </linearGradient>
    <linearGradient
       id="linearGradient39155-6">
      <stop
         id="stop39157-6"
         offset="0"
         style="stop-color: white; stop-opacity: 1;" />
      <stop
         id="stop39159-7"
         offset="1"
         style="stop-color: rgb(218, 218, 218); stop-opacity: 1;" />
    </linearGradient>
    <linearGradient
       id="linearGradient39171-8"
       inkscape:collect="always">
      <stop
         id="stop39173-3"
         offset="0"
         style="stop-color: white; stop-opacity: 1;" />
      <stop
         id="stop39175-4"
         offset="1"
         style="stop-color: white; stop-opacity: 0;" />
    </linearGradient>
    <inkscape:perspective
       id="perspective2414"
       inkscape:persp3d-origin="24 : 16 : 1"
       inkscape:vp_z="48 : 24 : 1"
       inkscape:vp_y="0 : 1000 : 0"
       inkscape:vp_x="0 : 24 : 1"
       sodipodi:type="inkscape:persp3d" />
    <clipPath
       clipPathUnits="userSpaceOnUse"
       id="clipPath3931">
      <rect
         mask="none"
         clip-path="none"
         y="826.38007"
         x="0"
         height="225.98213"
         width="501"
         id="rect3933"
         style="fill:#ffffff;fill-opacity:1;fill-rule:nonzero;stroke:none" />
    </clipPath>
    <clipPath
       id="clipPath3020"
       clipPathUnits="userSpaceOnUse">
      <path
         id="path3022"
         d="m 0,0 3347.91,0 0,1206 L 0,1206 0,0 z" />
    </clipPath>
    <clipPath
       clipPathUnits="userSpaceOnUse"
       id="clipPath3060">
      <path
         style="opacity:0.3;fill:#000000;fill-opacity:1;stroke:none"
         d="m 0,827.36218 238.72526,0 0.0757,-2.3256 0.95354,-0.0449 0.14768,2.37046 0.66505,-0.75117 0.7717,-0.077 0.0451,0.80765 3.94454,0.0205 0.24549,-0.93334 0.20306,-8.0161 0.47256,-0.0769 0.428,7.91187 0.3316,1.10854 1.56231,0.006 0.40175,-9.64286 0.53558,0 0,9.64286 3.30357,0 0.35714,-1.02679 0.66894,-0.86316 0.17928,1.88995 1.8265,0 0.31637,-1.42878 1.45552,-2.16695 1.3794,-6.9693 0.45118,0.0308 0.42853,7.1414 1.58622,-2.61721 1.52333,-2.9327 0.96299,-9.98246 0.74229,-0.0446 -0.0595,7.40733 1.67934,-2.77129 0.45671,14.33379 234.23323,10e-5 0,224.99998 -501,0 z"
         id="path3062"
         inkscape:connector-curvature="0"
         sodipodi:nodetypes="ccccccccccccccccccccccccccccccccccccccc" />
    </clipPath>
  </defs>
  <sodipodi:namedview
     id="base"
     pagecolor="#ffffff"
     bordercolor="#666666"
     borderopacity="1.0"
     inkscape:pageopacity="0.0"
     inkscape:pageshadow="2"
     inkscape:zoom="2.8284271"
     inkscape:cx="192.33979"
     inkscape:cy="120.5917"
     inkscape:document-units="px"
     inkscape:current-layer="layer1"
     showgrid="false"
     inkscape:window-width="3840"
     inkscape:window-height="2035"
     inkscape:window-x="-13"
     inkscape:window-y="-13"
     inkscape:window-maximized="1"
     showguides="true"
     inkscape:guide-bbox="true"
     inkscape:snap-global="true">
    <sodipodi:guide
       orientation="0,1"
       position="622.14286,225"
       id="guide3887"
       inkscape:locked="false" />
    <sodipodi:guide
       orientation="1,0"
       position="0,398.0001"
       id="guide3912"
       inkscape:locked="false" />
    <sodipodi:guide
       orientation="1,0"
       position="501,325.26912"
       id="guide3914"
       inkscape:locked="false" />
    <sodipodi:guide
       orientation="0,1"
       position="187.88837,0"
       id="guide3916"
       inkscape:label=""
       inkscape:color="rgb(255,255,255)"
       inkscape:locked="false" />
    <sodipodi:guide
       orientation="0,1"
       position="247.94643,282"
       id="guide3053"
       inkscape:locked="false" />
    <sodipodi:guide
       position="8.5624998,26.499999"
       orientation="1,0"
       id="guide24696"
       inkscape:locked="false" />
    <sodipodi:guide
       position="32.946756,272.2803"
       orientation="0,1"
       id="guide25509"
       inkscape:locked="false" />
    <sodipodi:guide
       position="38.868775,234.64896"
       orientation="0,1"
       id="guide25511"
       inkscape:locked="false" />
  </sodipodi:namedview>
  <metadata
     id="metadata7">
    <rdf:RDF>
      <cc:Work
         rdf:about="">
        <dc:format>image/svg+xml</dc:format>
        <dc:type
           rdf:resource="http://purl.org/dc/dcmitype/StillImage" />
        <dc:title />
      </cc:Work>
    </rdf:RDF>
  </metadata>
  <g
     inkscape:label="Layer 1"
     inkscape:groupmode="layer"
     id="layer1"
     transform="translate(0,-770.36218)">
    <image
       y="1052.3622"
       x="-936.12775"
       id="image5865"
       xlink:href="file:///home/bdancer/Pictures/Selection_001.png"
       height="282"
       width="500.54999"
       clip-path="none" />
    <rect
       style="opacity:0.07000002;fill:url(#pattern10697);fill-opacity:1;stroke:none"
       id="rect5826-5"
       width="501"
       height="57"
       x="1.4142137"
       y="689.47571"
       inkscape:export-filename="/home/bdancer/devel/vrayblender/vb30/blender-git/release/datafiles/rect5826-5.png"
       inkscape:export-xdpi="90"
       inkscape:export-ydpi="90" />
    <g
       id="layer1-1"
       inkscape:label="Layer 1"
       transform="matrix(1.0181873,0,0,1.0181873,5.0802867,775.62026)">
      <path
         transform="matrix(1.27429,0,0,1.37712,-7.56912,-16.7019)"
         d="M 43.487067,38.98439 A 15.467961,5.3033009 0 0 1 28.019106,44.287691 15.467961,5.3033009 0 0 1 12.551145,38.98439 15.467961,5.3033009 0 0 1 28.019106,33.681089 15.467961,5.3033009 0 0 1 43.487067,38.98439 Z"
         sodipodi:ry="5.3033009"
         sodipodi:rx="15.467961"
         sodipodi:cy="38.98439"
         sodipodi:cx="28.019106"
         id="path35486"
         style="opacity:0.548571;color:#000000;fill:url(#radialGradient35494);fill-opacity:1;fill-rule:nonzero;stroke:none;stroke-width:1;marker:none;visibility:visible;display:inline;overflow:visible"
         sodipodi:type="arc" />
      <path
         sodipodi:nodetypes="csssssssssscccsscccscccssccc"
         d="m 16.048489,28.093447 c 0.0098,0.576682 0.196474,1.697902 0.471116,2.577425 0.581566,1.854137 1.56684,3.572658 2.939126,5.086496 1.407488,1.553118 3.138519,2.803227 5.139315,3.68976 2.105357,0.931573 4.384795,1.407488 6.750134,1.403741 2.365339,-0.005 4.644601,-0.488686 6.74896,-1.427017 2.00002,-0.895288 3.731043,-2.148391 5.13754,-3.705517 1.369207,-1.519844 2.352576,-3.241114 2.934089,-5.096258 0.294262,-0.938353 0.476921,-1.889392 0.553238,-2.845308 0.07331,-0.939306 0.04204,-1.883511 -0.09183,-2.823792 -0.259981,-1.835599 -0.896294,-3.556847 -1.872652,-5.12758 -0.895541,-1.441699 -2.047808,-2.70454 -3.417268,-3.766975 0,0 0.002,-0.002 0.002,-0.002 0,0 -13.828458,-10.6197195 -13.828458,-10.6197195 -0.01176,-0.00978 -0.02252,-0.019551 -0.03529,-0.028344 -0.909003,-0.6959264 -2.434775,-0.6939758 -3.431728,0.00488 -1.01067,0.7057021 -1.091821,1.8092613 -0.195527,2.5482146 1.899775,1.4997633 3.792068,3.0680399 5.702368,4.5676189 0,0 -17.551681,-0.01171 -17.551681,-0.01171 -1.994685,0 -3.1682604,0.947915 -3.4153942,2.333683 -0.2180771,1.222836 0.7479213,2.738129 2.4800212,2.738129 2.956573,0.0039 5.942111,-0.0069 8.909215,-0.01272 0,0 -15.901723,11.764162 -15.901723,11.764162 -0.020527,0.01564 -0.041053,0.02933 -0.06158,0.04497 -1.4974197,1.148389 -1.9831951,3.059322 -1.0399808,4.268393 0.9598323,1.22959 2.9977653,1.230588 4.5147288,0.006 0,0 8.677593,-7.102098 8.677593,-7.102098 0,0 -0.12511,0.959824 -0.116333,1.535532 z"
         id="path2482"
         style="fill:#f57900;fill-rule:evenodd;stroke:#ce5c00;stroke-width:1;stroke-linecap:butt;stroke-linejoin:miter;stroke-miterlimit:4;stroke-dasharray:none"
         inkscape:connector-curvature="0" />
      <path
         transform="matrix(0.821621,0,0,0.839506,5.87569,3.88272)"
         d="M 42.75,25.75 A 11.5625,10.125 0 0 1 31.1875,35.875 11.5625,10.125 0 0 1 19.625,25.75 11.5625,10.125 0 0 1 31.1875,15.625 11.5625,10.125 0 0 1 42.75,25.75 Z"
         sodipodi:ry="10.125"
         sodipodi:rx="11.5625"
         sodipodi:cy="25.75"
         sodipodi:cx="31.1875"
         id="path39153"
         style="color:#000000;fill:url(#linearGradient39161);fill-opacity:1;fill-rule:nonzero;stroke:none;stroke-width:1;marker:none;visibility:visible;display:inline;overflow:visible"
         sodipodi:type="arc" />
      <path
         sodipodi:nodetypes="cssssscscczccsccssssccscccccscssc"
         id="path3562"
         d="m 25.796988,6.0267804 c -0.404852,5.53e-4 -0.818619,0.1256944 -1.095272,0.3196267 -7.14e-4,7.142e-4 -0.0014,0.00143 -0.0021,0.00213 -0.280209,0.1956525 -0.336859,0.3680061 -0.345206,0.4602725 -0.0083,0.092266 -0.01324,0.1672776 0.189655,0.3345475 0.01899,0.015735 0.03747,0.032076 0.0554,0.049009 0.124258,0.1010285 5.704394,4.6389489 5.704394,4.6389489 0.373658,0.304091 0.51584,0.810232 0.355197,1.264415 -0.160635,0.454191 -0.589422,0.382732 -1.071174,0.384283 -5.634142,0.05114 -17.60967,0.01918 -17.60967,0.01918 -0.952967,6.38e-4 -2.3472795,0.516793 -2.4135719,1.585761 -0.063562,1.024947 0.9093059,1.457499 1.5782589,1.457499 0,0 8.830403,-0.01705 8.830403,-0.01705 0.488364,-5.91e-4 0.922857,0.221532 1.080466,0.683755 0.15761,0.462231 0.0033,0.53156 -0.383664,0.829439 0,0 -15.9006939,12.205735 -15.9006939,12.205735 -0.00142,0.0014 -0.00284,0.0028 -0.00426,0.0043 -0.064038,0.04879 -0.084772,0.06226 -0.061795,0.04476 -0.5536756,0.424618 -0.8961097,0.98072 -1.0185711,1.476701 -0.1224537,0.495981 -0.04659,0.882548 0.1875202,1.182646 0.4788333,0.613413 1.7693735,0.732111 2.8980115,-0.178996 0,0 8.6727243,-7.09799 8.6727243,-7.09799 0.361955,-0.295752 0.867758,-0.340606 1.276111,-0.113169 0.408345,0.227437 0.636512,0.681082 0.575631,1.144518 0,0 -0.112502,0.980045 -0.10655,1.370159 0.192357,2.636407 1.448328,4.914995 3.115366,6.91474 2.877746,3.172809 6.84939,4.556285 11.042271,4.719919 4.20342,-0.04394 8.185784,-1.662428 11.042264,-4.758277 5.218918,-6.385867 3.941737,-13.3639 -1.747326,-17.993227 C 36.14442,13.301598 31.42752,9.8792062 26.81986,6.3400589 c -0.0043,-0.00352 -0.0086,-0.00707 -0.01279,-0.010651 -0.0072,-0.00489 -0.01427,-0.00987 -0.02131,-0.014921 -0.210578,-0.1612288 -0.584681,-0.288267 -0.988772,-0.2877065 z"
         style="opacity:0.485714;fill:none;stroke:url(#linearGradient34576);stroke-width:1;stroke-linecap:butt;stroke-linejoin:miter;stroke-miterlimit:4;stroke-opacity:1;stroke-dasharray:none"
         inkscape:connector-curvature="0" />
      <path
         d="m 26.007076,24.754048 c 0.07447,-1.361157 0.739293,-2.562655 1.738705,-3.413271 0.983518,-0.836183 2.304215,-1.346747 3.746876,-1.346747 1.441743,0 2.762441,0.510564 3.745729,1.346747 1.000515,0.850616 1.664539,2.051213 1.739875,3.41237 0.07718,1.400852 -0.4828,2.701576 -1.46425,3.66495 -1.000516,0.981409 -2.427099,1.597503 -4.021354,1.597503 -1.595172,0 -3.021756,-0.616094 -4.022225,-1.597503 -0.982461,-0.963374 -1.540507,-2.264098 -1.463356,-3.664049 z"
         id="path2478"
         style="fill:#3465a4;fill-rule:evenodd;stroke:none"
         inkscape:connector-curvature="0" />
      <path
         sodipodi:nodetypes="csssscsccsscsccssssscsscccsssc"
         id="path39166"
         d="m 25.8125,6.03125 c -0.404852,5.528e-4 -0.848347,0.1185677 -1.125,0.3125 -0.280209,0.1956523 -0.335403,0.3764836 -0.34375,0.46875 -0.0083,0.092267 -0.01539,0.1764801 0.1875,0.34375 0.01899,0.015735 0.04457,0.014317 0.0625,0.03125 0.124258,0.1010283 5.71875,4.65625 5.71875,4.65625 0.373658,0.304091 0.504393,0.795817 0.34375,1.25 -0.160635,0.454191 -0.580748,0.373449 -1.0625,0.375 -5.634142,0.05114 -17.625,0.03125 -17.625,0.03125 -0.952967,6.38e-4 -2.3399576,0.524782 -2.40625,1.59375 -0.063562,1.024947 0.924797,1.4375 1.59375,1.4375 0,-1e-6 8.8125,0 8.8125,0 0.488364,-5.92e-4 0.936141,0.225277 1.09375,0.6875 0.157609,0.462231 -0.01926,0.514621 -0.40625,0.8125 0,0 -15.875,12.21875 -15.875,12.21875 -0.00142,0.0014 -0.029829,-0.0014 -0.03125,0 -0.064037,0.04879 -0.054226,0.04875 -0.03125,0.03125 -0.5536758,0.424619 -0.9087886,1.004019 -1.03125,1.5 -0.1224536,0.495981 -0.04661,0.856152 0.1875,1.15625 0.4788333,0.613413 1.777612,0.754857 2.90625,-0.15625 1e-7,10e-7 8.65625,-7.09375 8.65625,-7.09375 0.361955,-0.295753 0.872897,-0.352437 1.28125,-0.125 0.408345,0.227436 0.623381,0.692814 0.5625,1.15625 0,-1e-6 -0.0997,0.953636 -0.09375,1.34375 0.09498,1.301756 0.451616,2.521825 0.989039,3.664234 C 20.799917,36.321089 27.770982,19.392853 44.1875,21.03125 43.339652,19.54368 42.151282,18.185293 40.65625,16.96875 36.159865,13.309932 31.42016,9.8828973 26.8125,6.34375 26.805335,6.3388584 26.788292,6.317553 26.78125,6.3125 26.570707,6.1513121 26.216591,6.0306895 25.8125,6.03125 z"
         style="opacity:0.51999996;fill:url(#radialGradient39177);fill-opacity:1;fill-rule:evenodd;stroke:none"
         inkscape:connector-curvature="0" />
    </g>
    <text
       xml:space="preserve"
       style="font-style:normal;font-variant:normal;font-weight:normal;font-stretch:normal;line-height:0%;font-family:Calibri;-inkscape-font-specification:Calibri;letter-spacing:0px;word-spacing:0px;fill:#000000;fill-opacity:1;stroke:none"
       x="59.680725"
       y="805.45502"
       id="text3107"><tspan
         sodipodi:role="line"
         x="59.680725"
         y="805.45502"
         style="font-style:normal;font-variant:normal;font-weight:normal;font-stretch:normal;font-size:26.72323227px;line-height:1.25;font-family:PragmataPro;-inkscape-font-specification:PragmataPro;fill:#ffffff;fill-opacity:1"
         id="tspan9241">Blender</tspan></text>
    <text
       xml:space="preserve"
       style="font-style:normal;font-weight:normal;line-height:0%;font-family:sans-serif;text-align:start;letter-spacing:0px;word-spacing:0px;text-anchor:start;fill:#000000;fill-opacity:1;stroke:none"
       x="61.522064"
       y="816.60675"
       id="text5880"><tspan
         sodipodi:role="line"
         x="61.522064"
         y="816.60675"
         style="font-style:normal;font-variant:normal;font-weight:normal;font-stretch:normal;font-size:9.18886662px;line-height:1.25;font-family:PragmataPro;-inkscape-font-specification:PragmataPro;text-align:start;text-anchor:start;fill:#ffffff"
         id="tspan3081">With V-Ray Additions</tspan></text>
    <image
       sodipodi:absref="/mnt/koki/public/ZA BOZHIDAR STOYANOV/fishy_cat_Vray/send/3/3.jpg"
       y="1052.3622"
       x="-2111.4209"
       id="image24706"
       xlink:href="file:///mnt/koki/public/ZA%20BOZHIDAR%20STOYANOV/fishy_cat_Vray/send/3/3.jpg"
       preserveAspectRatio="none"
       height="229.99998"
       width="501" />
    <image
       sodipodi:absref="/mnt/koki/public/ZA BOZHIDAR STOYANOV/fishy_cat_Vray/send/4/4.jpg"
       y="1052.3622"
       x="-2648.7449"
       id="image24675"
       xlink:href="file:///mnt/koki/public/ZA%20BOZHIDAR%20STOYANOV/fishy_cat_Vray/send/4/4.jpg"
       preserveAspectRatio="none"
       height="230"
       width="501" />
    <image
       y="1052.3622"
       x="-1574.676"
       id="image3078"
       xlink:href="file:///home/bdancer/Downloads/from_skype/9_Sep_2014/030_040.png"
       height="225"
       width="537.06299"
       inkscape:export-filename="/home/bdancer/devel/vrayblender/vb25-patch/datafiles/image3078.png"
       inkscape:export-xdpi="90"
       inkscape:export-ydpi="90" />
    <text
       xml:space="preserve"
       style="font-style:normal;font-variant:normal;font-weight:normal;font-stretch:normal;line-height:0%;font-family:Calibri;-inkscape-font-specification:Calibri;letter-spacing:0px;word-spacing:0px;fill:#000000;fill-opacity:1;stroke:none"
       x="161.66858"
       y="805.42273"
       id="text3107-3"><tspan
         sodipodi:role="line"
         id="tspan3109-2"
         x="161.66858"
         y="805.42273"
         style="font-style:normal;font-variant:normal;font-weight:normal;font-stretch:normal;font-size:26.72323227px;line-height:1.25;font-family:PragmataPro;-inkscape-font-specification:PragmataPro;fill:#ffffff;fill-opacity:1">2.79</tspan></text>
    <text
       xml:space="preserve"
       style="font-style:normal;font-variant:normal;font-weight:normal;font-stretch:normal;line-height:0%;font-family:PragmataPro;-inkscape-font-specification:PragmataPro;text-align:start;letter-spacing:0px;word-spacing:0px;text-anchor:start;fill:#ffffff;fill-opacity:1;stroke:none;stroke-width:1px;stroke-linecap:butt;stroke-linejoin:miter;stroke-opacity:1"
       x="7.99084"
       y="1032.839"
       id="text24648"><tspan
         sodipodi:role="line"
         id="tspan24665"
         x="7.99084"
         y="1032.839"
         style="font-size:9.33503437px;line-height:1.25">Original scene: Manu Järvinen</tspan></text>
    <text
       xml:space="preserve"
       style="font-style:normal;font-variant:normal;font-weight:normal;font-stretch:normal;line-height:0%;font-family:PragmataPro;-inkscape-font-specification:PragmataPro;text-align:start;letter-spacing:0px;word-spacing:0px;text-anchor:start;fill:#ffffff;fill-opacity:1;stroke:none;stroke-width:1px;stroke-linecap:butt;stroke-linejoin:miter;stroke-opacity:1"
       x="7.7659431"
       y="1045.0314"
       id="text24648-4"><tspan
         sodipodi:role="line"
         id="tspan24665-7"
         x="7.7659431"
         y="1045.0314"
         style="font-size:9.33503437px;line-height:1.25">Rendered by Bozhidar Stoyanov (Chaos Group)</tspan></text>
    <image
       sodipodi:absref="C:\src\vray_for_blender\vb25-patch\datafiles\splash/julianSantiago.jpg"
       xlink:href="splash/julianSantiago.jpg"
       y="827.36218"
       x="-0.85253954"
       id="image4231"
       preserveAspectRatio="none"
       height="225.27069"
       width="502.60394" />
  </g>
</svg>
